<mxfile host="app.diagrams.net" agent="Mozilla/5.0 (Macintosh; Intel Mac OS X 10_15_7) AppleWebKit/537.36 (KHTML, like Gecko) Chrome/137.0.0.0 Safari/537.36" version="27.1.6">
  <diagram name="Page-1" id="gi4vCYi5mK5d0KJ-lI0V">
    <mxGraphModel dx="1234" dy="824" grid="0" gridSize="10" guides="1" tooltips="1" connect="1" arrows="1" fold="1" page="0" pageScale="1" pageWidth="850" pageHeight="1100" math="0" shadow="0">
      <root>
        <mxCell id="0" />
        <mxCell id="1" parent="0" />
        <mxCell id="5RQzjqeKvx9jLv_Sv97y-1" value="" style="rounded=1;whiteSpace=wrap;html=1;strokeWidth=2;fillColor=#e1d5e7;strokeColor=#000000;" vertex="1" parent="1">
          <mxGeometry x="208" y="369" width="120" height="60" as="geometry" />
        </mxCell>
        <mxCell id="5RQzjqeKvx9jLv_Sv97y-2" value="&lt;font style=&quot;font-size: 16px;&quot;&gt;层归一化&lt;/font&gt;" style="text;html=1;align=center;verticalAlign=middle;whiteSpace=wrap;rounded=0;" vertex="1" parent="1">
          <mxGeometry x="211" y="384" width="114" height="30" as="geometry" />
        </mxCell>
        <mxCell id="5RQzjqeKvx9jLv_Sv97y-3" value="" style="rounded=1;whiteSpace=wrap;html=1;strokeWidth=2;fillColor=#fff2cc;strokeColor=#000000;" vertex="1" parent="1">
          <mxGeometry x="208" y="512" width="120" height="60" as="geometry" />
        </mxCell>
        <mxCell id="5RQzjqeKvx9jLv_Sv97y-4" value="&lt;span style=&quot;font-size: 16px;&quot;&gt;前馈网络&lt;/span&gt;" style="text;html=1;align=center;verticalAlign=middle;whiteSpace=wrap;rounded=0;" vertex="1" parent="1">
          <mxGeometry x="211" y="527" width="114" height="30" as="geometry" />
        </mxCell>
        <mxCell id="5RQzjqeKvx9jLv_Sv97y-5" value="" style="rounded=1;whiteSpace=wrap;html=1;strokeWidth=2;fillColor=#e1d5e7;strokeColor=#000000;" vertex="1" parent="1">
          <mxGeometry x="208" y="630" width="120" height="60" as="geometry" />
        </mxCell>
        <mxCell id="5RQzjqeKvx9jLv_Sv97y-6" value="&lt;font style=&quot;font-size: 16px;&quot;&gt;层归一化&lt;/font&gt;" style="text;html=1;align=center;verticalAlign=middle;whiteSpace=wrap;rounded=0;" vertex="1" parent="1">
          <mxGeometry x="211" y="645" width="114" height="30" as="geometry" />
        </mxCell>
        <mxCell id="5RQzjqeKvx9jLv_Sv97y-7" value="" style="rounded=1;whiteSpace=wrap;html=1;strokeWidth=2;fillColor=#fad9d5;strokeColor=#000000;" vertex="1" parent="1">
          <mxGeometry x="183" y="744" width="204" height="60" as="geometry" />
        </mxCell>
        <mxCell id="5RQzjqeKvx9jLv_Sv97y-8" value="&lt;span style=&quot;font-size: 16px;&quot;&gt;带掩码的多头自注意力机制&lt;/span&gt;" style="text;html=1;align=center;verticalAlign=middle;whiteSpace=wrap;rounded=0;" vertex="1" parent="1">
          <mxGeometry x="186" y="759" width="197" height="30" as="geometry" />
        </mxCell>
        <mxCell id="5RQzjqeKvx9jLv_Sv97y-9" value="" style="rounded=1;whiteSpace=wrap;html=1;strokeWidth=2;fillColor=#fad7ac;strokeColor=#000000;" vertex="1" parent="1">
          <mxGeometry x="186" y="864" width="204" height="60" as="geometry" />
        </mxCell>
        <mxCell id="5RQzjqeKvx9jLv_Sv97y-10" value="&lt;span style=&quot;font-size: 16px;&quot;&gt;文本与位置嵌入&lt;/span&gt;" style="text;html=1;align=center;verticalAlign=middle;whiteSpace=wrap;rounded=0;" vertex="1" parent="1">
          <mxGeometry x="189" y="879" width="197" height="30" as="geometry" />
        </mxCell>
        <mxCell id="5RQzjqeKvx9jLv_Sv97y-11" value="" style="rounded=1;whiteSpace=wrap;html=1;strokeWidth=2;fillColor=#d5e8d4;strokeColor=#000000;" vertex="1" parent="1">
          <mxGeometry x="141" y="272" width="120" height="60" as="geometry" />
        </mxCell>
        <mxCell id="5RQzjqeKvx9jLv_Sv97y-12" value="&lt;span style=&quot;font-size: 16px;&quot;&gt;文本预测&lt;/span&gt;" style="text;html=1;align=center;verticalAlign=middle;whiteSpace=wrap;rounded=0;" vertex="1" parent="1">
          <mxGeometry x="144" y="287" width="114" height="30" as="geometry" />
        </mxCell>
        <mxCell id="5RQzjqeKvx9jLv_Sv97y-13" value="" style="rounded=1;whiteSpace=wrap;html=1;strokeWidth=2;fillColor=#60a917;strokeColor=#000000;fontColor=#ffffff;" vertex="1" parent="1">
          <mxGeometry x="261" y="272" width="120" height="60" as="geometry" />
        </mxCell>
        <mxCell id="5RQzjqeKvx9jLv_Sv97y-14" value="&lt;span style=&quot;font-size: 16px;&quot;&gt;文本分类&lt;/span&gt;" style="text;html=1;align=center;verticalAlign=middle;whiteSpace=wrap;rounded=0;" vertex="1" parent="1">
          <mxGeometry x="264" y="287" width="114" height="30" as="geometry" />
        </mxCell>
        <mxCell id="5RQzjqeKvx9jLv_Sv97y-15" value="" style="ellipse;whiteSpace=wrap;html=1;aspect=fixed;strokeWidth=2;" vertex="1" parent="1">
          <mxGeometry x="385" y="591" width="23" height="23" as="geometry" />
        </mxCell>
        <mxCell id="5RQzjqeKvx9jLv_Sv97y-16" value="&lt;font style=&quot;font-size: 36px;&quot;&gt;+&lt;/font&gt;" style="text;html=1;align=center;verticalAlign=middle;whiteSpace=wrap;rounded=0;" vertex="1" parent="1">
          <mxGeometry x="325" y="703.5" width="60" height="30" as="geometry" />
        </mxCell>
        <mxCell id="5RQzjqeKvx9jLv_Sv97y-17" value="" style="ellipse;whiteSpace=wrap;html=1;aspect=fixed;strokeWidth=2;" vertex="1" parent="1">
          <mxGeometry x="271" y="707" width="23" height="23" as="geometry" />
        </mxCell>
        <mxCell id="5RQzjqeKvx9jLv_Sv97y-18" value="&lt;font style=&quot;font-size: 36px;&quot;&gt;+&lt;/font&gt;" style="text;html=1;align=center;verticalAlign=middle;whiteSpace=wrap;rounded=0;" vertex="1" parent="1">
          <mxGeometry x="401" y="584" width="60" height="30" as="geometry" />
        </mxCell>
      </root>
    </mxGraphModel>
  </diagram>
</mxfile>
